<svg viewBox="90.63 81.107 335.724 216.946" xmlns="http://www.w3.org/2000/svg">
  <defs>
    <clipPath id="clipPath26">
      <path d="m0 1872h2272v-1872h-2272z" id="path720"></path>
    </clipPath>
  </defs>
  <g id="Layer_2">
    <g>
      <g transform="matrix(1, 0, 0, 1, 0, 31)">
        <circle fill-rule="evenodd" clip-rule="evenodd" cx="256" cy="185" r="175" fill="rgba(0, 0, 0, 0.2)" transform="matrix(0.959211, 0, 0, 0.619847, 12.934134, 43.908459)"></circle>
        <g id="g769" transform="matrix(11.198128, 0, 0, 11.248407, 83.541389, 67.014397)" style="">
          <g transform="matrix(0.025142, 0, 0, -0.022177, -12.123219, 30.249571)" clip-path="url(#clipPath26)" fill="url(#lineargradient885)" id="g761" style="fill: url(#linearGradient885);">
          <g transform="translate(1368.2,787.12)" id="g731" style="fill:url(#linearGradient777)">
            <path d="m 0,0 -207.95,86.789 c -3.52,1.661 -7.664,1.32 -10.867,-0.892 -3.203,-2.217 -4.981,-5.974 -4.663,-9.859 l 3.925,-47.857 c -15.131,-0.383 -30.426,-0.563 -45.9,-0.484 -254.84,1.307 -467.33,61.883 -519.27,172.51 -1.861,-8.744 -2.841,-29.185 -2.887,-38.174 -0.735,-143.3 235.03,-260.67 526.59,-262.17 17.515,-0.089 34.825,0.254 51.899,0.996 l 4.434,-54.087 c 0.319,-3.883 2.685,-7.3 6.205,-8.967 3.521,-1.662 7.665,-1.322 10.869,0.891 l 189.15,142.47 c 3.203,2.219 4.98,5.975 4.662,9.86 -0.319,3.884 -2.685,7.301 -6.206,8.968" id="path729" style="fill:rgba(243, 237, 237, 0.8); paint-order: stroke;"></path>
          </g>
          <g transform="translate(1636.5,943.74)" id="g735" style="fill:url(#linearGradient781)">
            <path d="m 0,0 c 0.071,13.962 -2.169,39.231 -6.421,52.618 -28.864,-83.165 -148.3,-140.31 -310.08,-166.06 l 92.158,-36.446 c 3.622,-1.435 6.206,-4.691 6.778,-8.546 0.57,-3.855 -0.96,-7.72 -4.011,-10.142 l -81.037,-64.28 c 178.42,40.757 302.08,129.41 302.61,232.85" id="path733" style="fill:[object Object]; paint-order: stroke;"></path>
          </g>
          <g transform="translate(749.04,1092.5)" id="g739" style="fill:url(#linearGradient785)">
            <path d="m 0,0 v 80.728 c -98.906,-34.704 -160.82,-83.963 -161.17,-138.88 -0.09,-14.262 4.092,-28.161 11.877,-41.572 12.635,48.038 67.386,67.816 149.29,99.722" id="path737" style="fill:rgba(243, 237, 237, 0.8) ; paint-order: stroke;"></path>
          </g>
          <g transform="translate(1468.1,1090.1)" id="g743" style="fill:url(#linearGradient789)">
            <path d="m 0,0 c 75.974,-30.102 128.61,-46.357 145.87,-90.299 4.221,9.835 6.496,19.92 6.562,30.21 0.339,53.62 -58.025,102.36 -152.43,137.69 z" id="path741" style="fill:rgba(243, 237, 237, 0.8); paint-order: stroke;"></path>
          </g>
          <g transform="translate(780.58,981.42)" id="g747" style="fill:url(#linearGradient793)">
            <path d="m 0,0 c -16.619,0 -29.094,3.449 -41.02,7.881 l -16.618,-51.717 c 9.852,-4.933 33.238,-9.866 58.653,-9.866 73.241,0 124.66,45.32 124.66,108.37 0,30.059 -15.563,56.148 -42.584,67.478 l 0.507,0.983 c 31.166,10.849 61.274,40.888 61.274,82.257 0,32.025 -19.197,68.962 -81.53,68.962 -24.908,0 -47.784,-6.397 -58.695,-11.329 L 4.14,211.803 c 8.838,4.431 22.877,8.362 36.367,8.362 23.385,0 36.367,-11.811 36.367,-30.039 0,-33.007 -36.875,-45.32 -60.767,-45.32 H 9.341 L -0.004,96.538 h 9.345 c 26.472,0 50.914,-12.813 50.914,-44.337 C 60.255,21.68 35.813,0.003 -0.004,0.003" id="path745" style="fill:rgba(243, 237, 237, 0.8); paint-order: stroke;"></path>
          </g>
          <g transform="translate(1022.7,1054.8)" id="g751" style="fill:url(#linearGradient797)">
            <path d="m 0,0 c 1.057,2.948 2.072,6.397 3.129,9.846 7.781,17.727 23.385,30.541 36.875,30.541 17.126,0 23.892,-14.298 23.892,-32.025 0,-33.488 -11.417,-90.619 -44.148,-90.619 -17.676,0 -23.385,20.193 -23.385,40.868 0,10.848 0.55,23.161 3.637,41.389 m 15.604,-127.1 c 67.491,0 112.7,67.98 112.7,139.89 0,30.541 -14.547,72.411 -60.767,72.913 -18.691,0 -37.382,-8.383 -50.365,-22.66 h -2.114 c 19.241,45.3 51.422,73.875 92.991,82.739 6.215,1.483 11.924,2.466 18.183,2.466 l 9.346,52.699 c -5.202,0 -9.896,0 -18.692,-1.483 C 81.534,195.032 46.224,180.273 16.116,154.163 -21.816,121.156 -64.4,54.661 -64.4,-28.577 c 0,-47.285 18.734,-98.52 80.009,-98.52" id="path749" style="fill:rgba(243, 237, 237, 0.8); paint-order: stroke;"></path>
          </g>
          <g transform="translate(1309,1203.6)" id="g755" style="fill:url(#linearGradient801)">
            <path d="m 0,0 c 12.982,0 18.691,-14.779 18.691,-35.474 0,-35.955 -20.255,-188.16 -60.767,-188.16 -15.604,0 -21.313,15.28 -21.313,41.87 0,40.888 21.821,181.76 63.389,181.76 m -50.914,-275.85 c 95.062,0 132.44,137.92 132.44,231.01 0,36.938 -8.839,97.037 -75.314,97.037 -84.66,0 -131.9,-120.68 -131.9,-228.54 0,-44.317 12.983,-99.504 74.765,-99.504" id="path753" style="fill:rgba(243, 237, 237, 0.8); paint-order: stroke;"></path>
          </g>
          <g transform="translate(1442.6,1286.9)" id="g759" style="fill:url(#linearGradient805)">
            <path d="m 0,0 c 18.013,0 32.613,-15.92 32.613,-35.559 0,-19.638 -14.6,-35.558 -32.613,-35.558 -18.011,0 -32.612,15.92 -32.612,35.558 C -32.612,-15.92 -18.011,0 0,0 m 0,-91.835 c 28.506,0 51.615,25.196 51.615,56.276 0,31.081 -23.109,56.277 -51.615,56.277 -28.505,0 -51.614,-25.196 -51.614,-56.277 0,-31.08 23.109,-56.276 51.614,-56.276" id="path757" style="fill:rgba(243, 237, 237, 0.8); paint-order: stroke;"></path>
          </g>
        </g>
      </g>
    </g>
  </g>
</svg>